<svg width="1114" height="611" viewBox="0 0 1114 611" fill="none" xmlns="http://www.w3.org/2000/svg">
<path fill-rule="evenodd" clip-rule="evenodd" d="M484.274 0.999894C477.497 1.93624 469.047 4.62734 462.376 7.97299C453.318 12.5138 442.236 23.607 437.864 32.5077C432.314 43.8058 431.755 49.227 432.047 88.954L432.31 124.666L473.781 124.943C496.59 125.096 515.814 125.215 516.501 125.209C518.226 125.194 518.272 147.26 516.551 148.981C515.733 149.798 510.943 150.18 501.508 150.18C480.712 150.18 469.364 153.307 456.281 162.642C440.316 174.035 432.038 189.323 431.108 209.139C430.181 228.863 434.99 242.425 447.22 254.581C455.425 262.736 463.444 267.324 474.376 270.121C501.202 276.981 527.256 263.912 534.991 239.716C536.894 233.764 537.273 224.182 537.713 170.915L537.736 168.167H554.775H571.813L571.513 209.888L571.212 251.609L568.408 257.319C566.857 260.476 563.619 264.776 561.163 266.939C558.721 269.088 556.723 271.128 556.723 271.471C556.723 271.813 570.776 272.091 587.951 272.087C621.37 272.079 632.835 271.057 642.403 267.23C656.485 261.598 668.082 250.731 674.376 237.27C678.542 228.359 679.621 216.99 679.629 181.919L679.636 150.201L635.917 149.941L592.198 149.68V137.189V124.698L605.188 124.581C620.525 124.444 630.157 122.574 640.347 117.76C665.099 106.062 679.636 83.9556 679.636 58.0078C679.636 42.152 673.572 28.1358 662.062 17.3864C648.369 4.59837 633.731 -0.683904 615.683 0.649158C601.553 1.69242 595.183 4.24262 586.203 12.4499C579.375 18.6905 576.544 22.9435 573.565 31.4345C571.475 37.3923 571.322 39.7756 570.925 72.5086L570.502 107.259L554.368 106.984L538.236 106.711L537.975 62.8874C537.806 34.4554 538.085 17.6891 538.769 15.1479C539.473 12.5348 541.674 9.41097 545.386 5.75854L550.947 0.2854L519.109 0.435289C501.598 0.517231 485.922 0.771055 484.274 0.999894ZM609.506 20.6021C599.933 23.3112 593.411 31.2776 591.548 42.5377C590.888 46.5259 590.773 59.2629 591.226 78.1047L591.933 107.459L605.556 106.986C616.89 106.593 620.495 106.064 627.011 103.842C648.091 96.6506 659.65 81.0086 659.65 59.6736C659.65 50.1044 657.986 44.2455 653.1 36.6059C649.404 30.8299 641.491 24.4774 634.668 21.8093C628.809 19.5179 615.577 18.8833 609.506 20.6021ZM480.776 21.6863C468.973 24.3395 461.374 30.2803 456.079 40.9918L452.296 48.6474V73.1821C452.296 109.287 450.151 107.366 490.025 106.976L517.25 106.711V63.7408V20.771L501.761 20.6111C492.486 20.5152 484.068 20.9469 480.776 21.6863ZM539.954 125.022C537.707 125.34 537.679 125.511 537.956 137.513L538.236 149.68H554.724H571.212L571.493 137.439C571.771 125.314 571.752 125.197 569.495 125.058C564.421 124.748 542.08 124.72 539.954 125.022ZM616.543 167.917C592.022 168.2 591.92 168.211 591.324 170.433C590.52 173.432 590.547 240.211 591.355 246.937L591.994 252.257L611.082 251.898C633.616 251.474 638.069 250.249 647.111 241.985C653.634 236.024 657.253 228.943 658.624 219.457C660.019 209.809 659.824 177.496 658.345 173.19C656.821 168.757 653.555 167.142 646.659 167.414C643.636 167.534 630.084 167.76 616.543 167.917ZM487.436 169.214C479.487 170.548 468.363 176.454 462.212 182.604C455.456 189.36 452.147 196.321 450.646 206.934C448.665 220.942 452.378 232.393 462.039 242.077C468.464 248.517 475.554 251.975 483.931 252.758C497.961 254.068 508.937 248.943 514.252 238.599L517.25 232.765L517.602 200.467L517.955 168.167L505.111 168.285C498.048 168.349 490.093 168.767 487.436 169.214ZM1023.89 354.983C1011.28 358.227 1005.7 360.867 995.708 368.319C985.089 376.237 974.614 392.403 971.292 406C969.203 414.545 969.673 431.907 972.262 441.892C975.38 453.914 980.206 461.957 990.317 471.98C1005.44 486.973 1018.8 491.6 1044.27 490.67C1056.56 490.221 1060.05 489.722 1066.34 487.522C1089.02 479.589 1104.72 463.471 1111.05 441.624C1114.05 431.275 1114.2 415.699 1111.4 404.767C1106.47 385.481 1092.84 369.226 1073.86 360.005C1060.05 353.295 1038.77 351.157 1023.89 354.983ZM3.6185 360.609C5.53815 363.124 7.34988 366.16 7.64367 367.354C7.93746 368.548 8.05038 394.258 7.8935 424.487L7.60869 479.448L4.313 484.195L1.01733 488.942H42.9968H84.9773L85.9656 485.194C87.9482 477.677 92.0533 458.633 91.7545 458.335C91.5866 458.166 88.0991 461.292 84.004 465.279C79.9099 469.268 74.3118 473.624 71.5637 474.96C66.881 477.235 65.499 477.39 49.5792 477.419L32.5911 477.45L32.2963 424.487C32.0905 387.39 32.3403 370.327 33.1287 367.527C33.7483 365.329 35.588 361.844 37.2179 359.783L40.1798 356.035H20.1539H0.126953L3.6185 360.609ZM108.672 358.773C113.987 364.507 114.051 365.104 114.148 409.897C114.197 432.761 114.691 454.303 115.247 457.768C117.606 472.493 133.654 486.573 152.007 490.022C161.169 491.744 179.389 491.749 185.484 490.033C200.108 485.914 212.615 475.976 218.297 463.959C220.341 459.636 220.443 457.72 220.941 414.494C221.513 364.771 221.262 366.658 228.262 359.283L231.343 356.035L215.908 356.114C207.419 356.157 201.006 356.41 201.657 356.676C202.309 356.941 204.332 359.481 206.154 362.32L209.467 367.481V411.473V455.465L206.834 461.081C201.045 473.428 190.466 480.761 177.125 481.675C172.886 481.966 167.043 481.694 164.137 481.07C152.265 478.524 141.61 470.602 138.913 462.315C137.143 456.873 136.369 375.687 138.017 368.214C138.736 364.949 140.349 361.581 142.203 359.47L145.219 356.035H125.677H106.134L108.672 358.773ZM251.76 360.456C259.048 368.363 261.642 374.399 298.919 470.205L306.21 488.942L314.298 488.94L322.387 488.938L324.699 483.194C325.969 480.035 330.776 467.557 335.38 455.465C339.985 443.374 346.054 427.635 348.867 420.49C351.68 413.345 354.802 405.251 355.803 402.503C362.869 383.111 369.304 370.339 376.397 361.632L380.956 356.035H365.823H350.689L353.192 359.009C356.611 363.072 357.238 366.859 355.539 373.173C354.748 376.113 347.466 395.607 339.357 416.493C331.249 437.378 324.085 455.919 323.437 457.695C322.788 459.472 321.982 461.201 321.643 461.539C320.829 462.353 317.698 456.021 314.973 448.052C313.766 444.524 308.241 430.359 302.694 416.574C282.871 367.311 282.495 365.854 288.016 359.568L291.116 356.035H269.401H247.685L251.76 360.456ZM406.061 359.283C412.113 367.244 411.824 364.057 411.824 422.873C411.824 453.837 411.428 477.865 410.892 479.273C410.379 480.622 408.534 483.349 406.791 485.333L403.623 488.942H449.194C474.259 488.942 494.781 488.83 494.8 488.692C494.819 488.554 496.53 481.585 498.602 473.203C500.675 464.821 502.174 457.964 501.932 457.964C501.691 457.964 498.235 461.058 494.253 464.842C483.051 475.482 473.292 478.25 448.798 477.734L435.308 477.45V451.071V424.693L450.739 424.907C468.656 425.155 470.858 425.801 476.255 432.387C478.348 434.94 480.332 436.754 480.667 436.42C481.571 435.513 481.405 404.007 480.495 404.004C480.066 404.003 478.314 405.598 476.6 407.55C471.417 413.453 469.703 413.912 451.648 414.217L435.308 414.494L435.04 391.26L434.771 368.027H449.822C465.225 368.027 477.339 369.713 483.01 372.646C484.555 373.445 487.495 375.879 489.544 378.056C491.591 380.232 493.604 382.014 494.017 382.015C494.429 382.016 494.766 376.171 494.766 369.026V356.035H449.179H403.593L406.061 359.283ZM534.184 360.952C536.514 364.412 537.789 367.673 538.218 371.267C538.563 374.157 538.708 399.495 538.54 427.574L538.236 478.628L535.029 483.784L531.823 488.942H550.872H569.92L566.873 485.471C565.198 483.563 563.355 480.303 562.778 478.226C561.579 473.906 561.321 433.345 562.49 432.623C562.913 432.362 566.551 432.448 570.573 432.814L577.886 433.481L590.062 454.245C596.758 465.665 604.209 477.298 606.619 480.096C612.799 487.271 618.896 489.924 629.172 489.912C638.338 489.901 648.474 487.698 645.16 486.436C640.608 484.702 635.066 481.98 633.601 480.756C629.856 477.633 600.692 432.426 600.692 429.745C600.692 429.005 602.603 427.886 604.939 427.259C612.249 425.298 620.731 419.017 625.327 412.164C630.305 404.743 632.165 397.876 631.266 390.234C630 379.458 625.474 372.356 615.346 365.253C603.892 357.217 600.821 356.686 563.487 356.261L530.779 355.89L534.184 360.952ZM721.168 357.246C720.945 357.955 720.497 360.139 720.174 362.102C719.85 364.065 715.518 376.206 710.546 389.083C705.576 401.96 700.18 416.184 698.556 420.692C694.186 432.819 683.018 460.273 678.625 469.688C676.189 474.909 672.88 479.929 669.571 483.429L664.357 488.942H680.08H695.803L693.216 485.867C689.033 480.895 689.385 477.294 695.703 460.464C698.385 453.32 701.376 446.874 702.349 446.141C703.553 445.233 705.715 444.99 709.115 445.38C711.863 445.696 722.04 445.959 731.73 445.963L749.348 445.972L754.465 459.436C757.641 467.796 759.58 474.474 759.58 477.055C759.58 481.28 756.48 487.743 754.252 488.162C753.61 488.284 762.978 488.621 775.069 488.912C787.161 489.204 797.428 489.28 797.886 489.082C798.344 488.883 797.394 487.916 795.776 486.932C789.335 483.015 786.404 476.963 769.538 432.763C762.348 413.922 752.711 389.062 748.121 377.52L739.777 356.535L730.675 356.247C723.924 356.034 721.469 356.292 721.168 357.246ZM820.743 362.891L827.599 369.748L827.315 423.673L827.032 477.598L824.035 482.002C822.386 484.424 820.677 486.976 820.237 487.674C819.606 488.677 822.458 488.942 833.88 488.942H848.32L845.512 485.936C839.719 479.734 839.524 477.89 839.524 429.306C839.524 400.7 839.874 385.015 840.514 385.015C841.06 385.015 846.343 391.042 852.256 398.408C858.17 405.774 876.947 429.155 893.985 450.364L924.964 488.927L930.71 488.935L936.456 488.942V428.934C936.456 363.588 936.158 367.248 942.121 359.283L944.552 356.035H930.023H915.495L918.847 361.282C920.691 364.168 922.708 368.911 923.332 371.823C924.723 378.332 924.922 448.97 923.548 448.97C923.044 448.97 921.808 447.895 920.8 446.58C919.792 445.265 913.347 437.33 906.477 428.945C899.606 420.56 886.627 404.659 877.633 393.611C868.638 382.563 858.071 369.594 854.149 364.791L847.018 356.059L830.452 356.047L813.887 356.035L820.743 362.891ZM1031.43 364.122C1025.25 365.335 1017.49 369.317 1012.15 374.018C1000.42 384.335 995.253 399.822 995.296 424.487C995.346 452.937 1004.02 469.333 1023.97 478.676C1029.36 481.201 1030.91 481.447 1041.38 481.447C1052.25 481.447 1053.24 481.272 1059.66 478.234C1073.36 471.743 1083.39 458.409 1086.82 442.136C1089.07 431.427 1088.84 413.233 1086.33 403.412C1083.8 393.519 1079.37 383.956 1074.64 378.188C1065.06 366.497 1047.87 360.9 1031.43 364.122ZM568.714 365.895L562.219 366.528L561.953 394.735L561.688 422.942L564.318 423.603C569.705 424.955 587.006 423.343 592.507 420.977C602.124 416.839 606.687 408.32 606.687 394.508C606.687 372.408 594.691 363.368 568.714 365.895ZM724.726 385.786C723.505 388.068 716.301 406.521 710.489 422.252C708.304 428.168 706.79 433.452 707.125 433.993C707.898 435.246 744.59 435.33 744.59 434.08C744.59 433.587 742.964 428.977 740.975 423.838C738.986 418.699 735.123 407.974 732.39 400.004C729.657 392.035 727.054 385.129 726.605 384.658C726.156 384.186 725.311 384.694 724.726 385.786ZM223.707 572.664L220.959 573.016V591.436V609.857H224.456H227.954V591.429C227.954 581.293 227.617 572.846 227.204 572.656C226.792 572.467 225.218 572.47 223.707 572.664ZM383.528 573.292C375.698 576.165 372.766 580.925 372.735 590.816C372.698 602.277 377.263 608.466 386.825 609.926C393.804 610.991 400.249 608.647 403.793 603.753C410.525 594.46 408.006 579.125 398.982 574.459C394.708 572.248 387.794 571.727 383.528 573.292ZM563.028 572.941C553.901 574.72 549.727 580.503 549.727 591.37C549.727 602.269 553.907 608.045 562.983 609.691C572.223 611.366 580.109 607.665 583.327 600.146C584.962 596.325 585.133 587.144 583.643 583.191C582.079 579.042 576.848 574.063 573.31 573.354C571.606 573.013 569.539 572.597 568.714 572.429C567.89 572.261 565.332 572.492 563.028 572.941ZM611.52 572.805C602.491 574.616 598.121 581.635 598.936 593.018C599.654 603.065 603.994 608.226 613.183 609.963C621.301 611.498 629.277 607.442 632.28 600.252C634.35 595.3 634.057 585.557 631.701 580.938C628.353 574.377 620.156 571.073 611.52 572.805ZM36.0887 591.37V609.857H39.5862H43.0837V603.861V597.865H48.1792C58.2621 597.865 63.0697 593.339 63.0697 583.848C63.0697 579.518 62.617 578.273 60.1487 575.804C57.2888 572.944 57.008 572.883 46.6582 572.883H36.0887V591.37ZM80.0577 591.37V609.857H83.0137H85.9696L86.2614 602.112L86.5532 594.368H89.5331C92.2881 594.368 92.7548 594.932 95.7357 601.862C98.9375 609.309 98.9844 609.359 103.046 609.667L107.133 609.977L104.757 605.17C99.7039 594.948 99.642 594.549 102.478 590.369C105.91 585.313 105.901 580.054 102.453 575.958C99.8848 572.905 99.7949 572.883 89.9618 572.883H80.0577V591.37ZM124.027 591.37V609.857H135.519H147.011V607.359C147.011 604.905 146.87 604.86 139.129 604.86H131.249L130.809 601.862C130.567 600.214 130.564 597.534 130.802 595.91C131.228 593.013 131.366 592.95 137.874 592.662C143.893 592.396 144.542 592.159 144.832 590.121C145.137 587.974 144.837 587.872 138.194 587.872C130.673 587.872 130.023 587.399 130.023 581.917C130.023 577.781 132.044 576.698 139.207 576.995C145.025 577.237 145.537 577.088 145.832 575.07C146.143 572.933 145.899 572.883 135.089 572.883H124.027V591.37ZM162.999 591.315V609.857H166.575C169.989 609.857 170.14 609.71 169.928 606.609C169.434 599.43 170.045 584.535 170.798 585.424C171.239 585.946 173.31 591.683 175.401 598.171C178.793 608.701 179.43 609.935 181.336 609.663C183.078 609.413 184.387 606.943 188.474 596.196C191.227 588.957 193.815 582.7 194.227 582.289C194.64 581.879 194.977 587.914 194.977 595.7V609.857H198.474H201.972V591.318V572.778L196.801 573.081L191.63 573.382L187.848 583.375C185.768 588.872 183.596 594.677 183.021 596.278C182.447 597.879 181.711 598.922 181.385 598.597C181.06 598.272 178.867 592.465 176.512 585.694L172.23 573.382L167.615 573.078L162.999 572.773V591.315ZM246.119 587.951L246.441 603.021L250.022 606.3C256.23 611.984 267.638 611.981 272.987 606.293C275.314 603.819 275.434 603.033 275.74 588.294L276.061 572.883H272.492H268.925V586.291C268.925 593.666 268.633 600.461 268.275 601.392C267.418 603.627 262.401 605.673 259.251 605.07C254.353 604.134 252.944 599.791 252.94 585.624L252.936 572.883H249.367H245.797L246.119 587.951ZM294.907 591.37V609.857H298.404H301.902V597.199C301.902 590.238 302.239 584.873 302.651 585.28C303.064 585.687 305.214 591.27 307.431 597.688C310.965 607.924 311.736 609.357 313.706 609.357C315.64 609.357 316.625 607.695 320.788 597.41C327.343 581.214 328.385 581.186 327.528 597.229L326.852 609.857H330.366H333.879V591.37V572.883H329.022H324.164L320.104 583.625C317.871 589.534 315.754 595.38 315.4 596.616C315.048 597.852 314.421 598.864 314.008 598.864C313.596 598.864 311.33 593.019 308.973 585.874L304.687 572.883H299.797H294.907V591.37ZM422.817 586.923C422.817 602.679 423.687 605.707 429.002 608.456C432.844 610.442 440.551 610.576 444.335 608.723C450.369 605.767 451.265 603.134 451.62 587.304L451.944 572.883H448.373H444.801V586.65C444.801 603.152 444.108 604.86 437.404 604.86C430.357 604.86 429.812 603.579 429.812 587.044V572.883H426.314H422.817V586.923ZM464.787 574.881C464.787 576.608 465.454 576.88 469.677 576.88C472.693 576.88 474.731 577.359 474.996 578.129C475.232 578.817 475.393 586.235 475.353 594.617L475.28 609.857H478.503H481.725L482 593.618L482.275 577.38L488.021 577.08C492.949 576.823 493.767 576.503 493.767 574.831C493.767 572.989 492.977 572.883 479.277 572.883C465.454 572.883 464.787 572.975 464.787 574.881ZM505.758 591.37V609.857L513.503 609.813C529.415 609.723 535.66 604.583 535.858 591.419C536.056 578.197 529.96 572.883 514.595 572.883H505.758V591.37ZM650.657 591.276V609.857H653.654C656.636 609.857 656.652 609.826 656.666 604.111C656.685 595.976 657.419 593.868 660.231 593.868C662.849 593.868 664.061 595.6 667.225 603.861C669.192 608.997 669.566 609.377 672.954 609.666L676.578 609.974L673.068 602.27L669.557 594.568L672.098 591.914C674.201 589.72 674.64 588.298 674.64 583.681C674.64 574.662 673.069 573.459 660.739 573.039L650.657 572.696V591.276ZM716.61 591.37V609.857H720.215C723.129 609.857 723.7 609.546 723.197 608.236C722.855 607.345 722.869 603.747 723.228 600.242L723.881 593.868H729.739C735.321 593.868 735.597 593.75 735.597 591.37C735.597 588.981 735.332 588.872 729.57 588.872C722.68 588.872 722.257 588.394 723.379 581.876L724.154 577.38L731.375 577.086C737.774 576.826 738.595 576.57 738.595 574.837C738.595 573.016 737.846 572.883 727.602 572.883H716.61V591.37ZM754.583 587.938C754.583 596.352 755.037 603.841 755.613 604.915C759.547 612.267 778.574 611.228 781.512 603.501C782.004 602.204 782.556 594.784 782.736 587.012L783.063 572.88L779.816 572.882L776.568 572.883V586.15C776.568 596.699 776.24 599.888 774.968 601.704C772.965 604.563 769.185 606.051 765.971 605.244C761.658 604.162 760.579 600.295 760.579 585.924V572.883H757.581H754.583V587.938ZM801.993 591.033L802.132 609.357L805.339 609.67L808.545 609.984V602.394C808.545 596.289 808.865 594.681 810.18 594.177C812.927 593.124 814.843 595.227 817.943 602.7L820.912 609.857H825.234H829.556L826.046 602.887C824.116 599.053 822.536 595.476 822.536 594.936C822.536 594.398 823.701 592.25 825.125 590.165C827.226 587.087 827.623 585.553 827.233 582.014C826.429 574.715 824.288 573.441 812.169 573.046L801.853 572.71L801.993 591.033ZM845.519 591.37V609.857H848.517H851.515L851.69 601.363C851.924 590.012 852.127 586.928 852.675 586.379C852.928 586.125 855.997 589.843 859.495 594.639C862.992 599.437 866.922 604.822 868.229 606.609C869.978 609.002 871.379 609.857 873.551 609.857H876.498V591.37V572.883H873.5H870.502V585.374C870.502 592.244 870.164 597.852 869.752 597.836C869.341 597.821 865 592.2 860.108 585.345C852.291 574.393 850.868 572.883 848.366 572.883H845.519V591.37ZM895.484 591.37V609.857H898.982H902.479V591.37V572.883H898.982H895.484V591.37ZM916.47 574.881C916.47 576.54 917.136 576.88 920.385 576.88C927.697 576.88 927.462 576.313 927.462 593.975V609.857H930.435H933.408L933.682 593.618L933.957 577.38L939.703 577.08C944.632 576.823 945.449 576.503 945.449 574.831C945.449 572.989 944.66 572.883 930.959 572.883C917.136 572.883 916.47 572.975 916.47 574.881ZM959.619 588.294C959.921 602.817 960.073 603.848 962.258 606.171C967.806 612.069 980.766 611.802 985.915 605.685C987.292 604.048 988.45 601.956 988.488 601.036C988.526 600.117 988.776 593.406 989.043 586.123L989.528 572.883H985.976H982.423V586.762C982.423 598.909 982.186 600.934 980.525 602.987C979.03 604.832 977.713 605.307 974.338 605.219C967.203 605.032 966.434 603.238 966.434 586.762V572.883H962.867H959.298L959.619 588.294ZM1007.41 591.37V609.857H1010.4H1013.4L1013.42 603.112C1013.43 595.303 1014.22 593.563 1017.5 594.031C1019.39 594.3 1020.52 595.886 1023.09 601.862C1026.27 609.273 1026.35 609.36 1030.32 609.663L1034.32 609.969L1030.82 602.275L1027.31 594.581L1029.54 592.212C1031.17 590.474 1031.88 588.268 1032.19 583.931C1032.58 578.617 1032.36 577.758 1030.05 575.451C1027.63 573.034 1026.89 572.883 1017.44 572.883H1007.41V591.37ZM1051.37 591.37V609.857H1062.87H1074.36V607.398C1074.36 605.01 1074.13 604.933 1066.11 604.65L1057.87 604.361L1057.57 598.66L1057.27 592.959L1064.57 592.664C1071.6 592.379 1071.86 592.28 1071.86 589.871C1071.86 587.718 1071.44 587.4 1068.86 587.563C1067.21 587.669 1063.93 587.525 1061.57 587.245L1057.27 586.735L1057.57 582.057L1057.87 577.38L1065.61 577.088C1072.54 576.827 1073.36 576.588 1073.36 574.839C1073.36 573.016 1072.61 572.883 1062.37 572.883H1051.37V591.37ZM43.0837 584.874V592.869H47.9253C54.0311 592.869 56.5293 590.493 56.5293 584.687C56.5293 579.423 53.5774 576.88 47.4697 576.88H43.0837V584.874ZM86.7201 577.546C86.3533 577.912 86.0535 580.633 86.0535 583.592V588.971L91.7995 588.672L97.5455 588.372L97.8632 583.911C98.1021 580.552 97.7463 579.133 96.4232 578.165C94.5865 576.822 87.8723 576.394 86.7201 577.546ZM386.099 577.908C382.329 579.424 379.855 584.674 379.851 591.17C379.846 598.306 381.913 602.575 386.251 604.387C396.409 608.632 404.172 596.258 399.178 583.779C396.925 578.148 391.529 575.725 386.099 577.908ZM513.503 577.46C513.09 577.873 512.753 584.208 512.753 591.537V604.86H516.801C525.006 604.86 528.742 600.603 528.742 591.255C528.742 586.354 526.433 580.789 523.689 579.075C521.28 577.57 514.468 576.491 513.503 577.46ZM562.482 578.444C558.721 580.484 556.723 584.813 556.723 590.919C556.723 599.936 560.832 605.275 567.623 605.082C574.334 604.891 577.708 600.303 577.708 591.37C577.708 584.378 575.593 580.145 571.178 578.3C566.99 576.55 565.939 576.568 562.482 578.444ZM612.105 578.298C604.456 581.629 603.461 596.955 610.486 603.211C612.82 605.29 618.335 605.649 621.546 603.931C624.774 602.204 626.673 597.549 626.673 591.37C626.673 584.378 624.559 580.145 620.144 578.3C616.075 576.6 616.004 576.6 612.105 578.298ZM657.319 577.546C656.522 578.342 656.427 586.122 657.189 588.107C657.873 589.893 666.611 589.53 667.792 587.666C669.163 585.508 668.742 580.119 667.074 578.45C665.519 576.895 658.61 576.255 657.319 577.546ZM809.259 577.5C808.866 577.891 808.545 580.558 808.545 583.425C808.545 588.253 808.738 588.676 811.158 589.138C818.045 590.454 822.54 585.547 819.473 580.06C818.299 577.958 817.11 577.316 813.974 577.083C811.772 576.92 809.651 577.107 809.259 577.5ZM1013.85 579.24C1013.52 580.538 1013.4 583.124 1013.58 584.986C1013.89 588.301 1014.01 588.378 1018.97 588.668C1023.56 588.935 1024.14 588.726 1025.19 586.423C1026.01 584.61 1026.05 583.102 1025.31 581.151C1023.97 577.648 1022.74 576.914 1018.17 576.895C1015.08 576.883 1014.34 577.283 1013.85 579.24Z" fill="#464747"/>
</svg>
